<svg width="40" height="40" viewBox="0 0 40 40" fill="none" xmlns="http://www.w3.org/2000/svg">
  <defs>
    <linearGradient id="logoGradient" x1="0%" y1="0%" x2="100%" y2="100%">
      <stop offset="0%" style="stop-color:#f97316"/>
      <stop offset="100%" style="stop-color:#ea580c"/>
    </linearGradient>
  </defs>
  <!-- Rounded square background -->
  <rect width="40" height="40" rx="10" fill="url(#logoGradient)"/>
  <!-- Map pin with property/site marker -->
  <path d="M20 8C14.48 8 10 12.48 10 18C10 25.5 20 34 20 34C20 34 30 25.5 30 18C30 12.48 25.52 8 20 8Z" fill="white" fill-opacity="0.25"/>
  <path d="M20 10C15.58 10 12 13.58 12 18C12 23.5 20 31 20 31C20 31 28 23.5 28 18C28 13.58 24.42 10 20 10Z" fill="white"/>
  <!-- Inner site/property square -->
  <rect x="15" y="14" width="10" height="8" rx="1.5" fill="url(#logoGradient)"/>
  <!-- Grid lines representing property/map -->
  <line x1="20" y1="14" x2="20" y2="22" stroke="white" stroke-width="1" stroke-opacity="0.6"/>
  <line x1="15" y1="18" x2="25" y2="18" stroke="white" stroke-width="1" stroke-opacity="0.6"/>
</svg>
